<svg xmlns="http://www.w3.org/2000/svg" xml:space="preserve" width="2000" height="560" data-id="lg_6kKpOF4KeiHUDgzVKL" data-version="1"><g data-padding="20"><path fill="#990609" d="M958.455 473.174c.987-40.576 2.075-81.153 2.861-121.73.252-13.87-.71-27.793-.406-41.665.279-12.58 1.823-25.136 2.278-37.716.178-4.607-1.164-9.264-1.822-13.897-4 1.367-8.607 1.873-11.897 4.227-12.252 8.683-24.098 17.973-36.097 27.035-6.176 4.657-11.846 10.328-18.655 13.694-7.544 3.721-15.998 6.91-24.25 7.468-10.404.683-17.694-6.709-21.314-15.897-3.67-9.341 1.114-19.669 10.53-26.554 11.973-8.732 23.82-17.643 36.046-26.021 15.062-10.303 30.401-20.225 45.741-30.148 7.442-4.809 8.581-9.62 2.38-15.668-5.24-5.089-11.417-9.164-16.986-13.898-2.987-2.556-6.303-5.163-8.226-8.48-5.747-9.947-15.492-14.934-24.326-21.238-15.643-11.188-30.933-22.781-42.349-38.778-4.075-5.696-10.58-9.949-11.112-17.593-.532-7.467-.076-15.036.075-22.528 0-.963.684-1.975 1.267-2.836 6.125-8.91 25.058-15.289 35.412-12.302 4.404 1.266 9.062 1.595 13.542 2.633 1.925.43 4.177 1.088 5.494 2.43 18.908 19.314 41.184 34.45 62.624 50.651 5.24 3.949 7.315 3.468 7.998-3.164 1.063-10.024 1.114-20.15 1.697-30.224.809-13.821.785-27.793 2.936-41.412 1.873-11.923 15.112-21.415 27.035-22.63 20.225-2.024 27.134 7.088 31.26 24.2 1.596 6.632 1.621 13.795 1.343 20.68-.861 20.58-2.355 41.109-3.291 61.688-.153 3.089 1.393 6.252 2.127 9.391 2.708-1.367 5.618-2.43 8.099-4.126 18.605-12.606 37.058-25.414 55.714-37.97 7.974-5.366 16.402-9.998 24.402-15.314 8.15-5.417 15.87-4.506 23.49.734 11.847 8.15 13.163 25.035 2.785 35.463-.152.153-.38.255-.456.431-9.948 19.01-29.844 26.123-45.512 38.35-15.492 12.074-32.907 21.794-46.02 36.855-3.568 4.101-3.67 7.088.71 10.379 6.024 4.53 12.099 9.01 18.25 13.39 13.34 9.467 26.706 18.883 40.096 28.3 9.72 6.834 20.149 12.859 28.958 20.706 6.682 5.949 12.15 13.77 16.453 21.668 2.354 4.303 2.607 10.96 1.19 15.795-1.368 4.709-5.848 8.657-9.417 12.53-3.038 3.316-6.277 7.366-10.226 8.733-13.62 4.709-26.452.81-37.97-6.657-12.302-7.998-23.946-17.01-35.869-25.567-.329-.253-.708-.556-1.087-.607-12.227-1.468-19.82-11.163-29.642-16.883-5.696-3.316-8.885-2.38-9.366 4.328-1.012 14.454-1.29 28.958-1.822 43.462-.051 1.67.582 3.468.176 5.012-7.669 27.693-6.935 56.044-6.96 84.342 0 29.415.43 58.828-.405 88.216-.38 13.341-3.139 26.655-5.316 39.92-1.064 6.53-13.442 11.087-20.883 7.947-8.86-3.72-18.327-6.809-24.275-14.96-2.684-3.695-5.57-8.226-5.797-12.53-.734-13.846-.278-27.743-.278-41.638h-1.038Z"/><path fill="transparent" stroke="transparent" d="M830.5 0h339v560h-339z"/></g></svg>